<svg width="452" height="452" viewBox="0 0 452 452" fill="none" xmlns="http://www.w3.org/2000/svg">
<path d="M385.089 94.7709H401.924C402.086 94.7609 402.242 94.705 402.374 94.6097C402.506 94.5143 402.608 94.3835 402.668 94.2324C402.729 94.0814 402.745 93.9162 402.715 93.7563C402.685 93.5963 402.611 93.4482 402.5 93.329C402.349 93.1704 402.143 93.0757 401.924 93.0646H385.089C384.876 93.0836 384.678 93.1817 384.533 93.3396C384.389 93.4975 384.309 93.7037 384.309 93.9177C384.309 94.1317 384.389 94.3379 384.533 94.4958C384.678 94.6537 384.876 94.7518 385.089 94.7709Z" fill="#07342F"/>
<path d="M385.001 99.7451H401.838C402.051 99.7261 402.25 99.628 402.394 99.4701C402.538 99.3122 402.619 99.106 402.619 98.892C402.619 98.678 402.538 98.4717 402.394 98.3138C402.25 98.1559 402.051 98.0578 401.838 98.0388H385.001C384.788 98.0578 384.59 98.1559 384.445 98.3138C384.301 98.4717 384.221 98.678 384.221 98.892C384.221 99.106 384.301 99.3122 384.445 99.4701C384.59 99.628 384.788 99.7261 385.001 99.7451Z" fill="#07342F"/>
<path d="M322.953 100.923C323.115 101.071 323.328 101.15 323.548 101.145C323.768 101.14 323.977 101.051 324.132 100.895C324.288 100.74 324.377 100.531 324.382 100.311C324.387 100.091 324.307 99.8781 324.159 99.7157C321.672 97.1442 319.142 94.6141 316.57 92.1266C316.408 91.9786 316.195 91.8988 315.975 91.9039C315.755 91.909 315.546 91.9985 315.391 92.1539C315.235 92.3093 315.146 92.5185 315.141 92.7382C315.136 92.9579 315.216 93.171 315.364 93.3334C317.849 95.9067 320.379 98.4367 322.953 100.923Z" fill="#07342F"/>
<path d="M330.063 100.922C330.227 101.064 330.438 101.138 330.654 101.13C330.87 101.122 331.075 101.033 331.228 100.88C331.381 100.727 331.47 100.523 331.478 100.307C331.487 100.091 331.413 99.8795 331.272 99.7156C328.513 96.8629 325.706 94.0564 322.854 91.2971C322.691 91.1491 322.478 91.0694 322.258 91.0744C322.039 91.0795 321.829 91.1691 321.674 91.3244C321.519 91.4798 321.429 91.6891 321.424 91.9087C321.419 92.1284 321.499 92.3416 321.647 92.504C324.405 95.3572 327.211 98.1637 330.063 100.922Z" fill="#07342F"/>
<path d="M360.469 100.922C360.633 101.064 360.844 101.138 361.06 101.13C361.276 101.122 361.481 101.033 361.634 100.88C361.787 100.727 361.876 100.523 361.885 100.307C361.893 100.091 361.819 99.8795 361.678 99.7156C358.919 96.8635 356.112 94.0569 353.26 91.2971C353.096 91.1559 352.885 91.0818 352.669 91.0897C352.453 91.0975 352.248 91.1867 352.095 91.3394C351.942 91.4921 351.853 91.697 351.844 91.913C351.836 92.1289 351.91 92.34 352.051 92.504C354.805 95.3611 357.612 98.1678 360.469 100.922Z" fill="#07342F"/>
<path d="M158.767 146.997L147.168 158.593C147.024 158.757 146.947 158.969 146.954 159.187C146.96 159.405 147.05 159.612 147.204 159.767C147.358 159.921 147.566 160.011 147.784 160.017C148.002 160.024 148.214 159.947 148.377 159.802C152.31 156.001 156.174 152.134 159.974 148.204C160.122 148.042 160.201 147.828 160.196 147.609C160.191 147.389 160.102 147.18 159.946 147.025C159.791 146.869 159.582 146.78 159.362 146.775C159.142 146.769 158.929 146.849 158.767 146.997Z" fill="#07342F"/>
<path d="M158.766 102.588L147.168 114.186C147.012 114.348 146.926 114.564 146.928 114.788C146.93 115.012 147.02 115.226 147.179 115.385C147.337 115.543 147.552 115.633 147.776 115.634C148 115.636 148.216 115.549 148.377 115.393C152.309 111.596 156.174 107.73 159.973 103.795C160.121 103.633 160.2 103.419 160.195 103.2C160.19 102.98 160.101 102.771 159.945 102.615C159.79 102.46 159.581 102.371 159.361 102.365C159.141 102.36 158.928 102.44 158.766 102.588Z" fill="#07342F"/>
<path d="M158.767 124.881C154.836 128.681 150.969 132.547 147.168 136.477C147.024 136.64 146.947 136.853 146.954 137.071C146.96 137.289 147.05 137.496 147.204 137.65C147.358 137.805 147.566 137.894 147.784 137.901C148.002 137.908 148.214 137.831 148.377 137.686C152.31 133.885 156.174 130.018 159.974 126.088C160.122 125.925 160.201 125.712 160.196 125.492C160.191 125.273 160.102 125.064 159.946 124.908C159.791 124.753 159.582 124.663 159.362 124.658C159.142 124.653 158.929 124.733 158.767 124.881Z" fill="#07342F"/>
<path d="M188.239 287.985C179.613 297.845 173.969 309.955 171.967 322.902C171.108 328.703 171.17 334.964 174.905 339.807C175.012 339.91 175.143 339.984 175.286 340.022C175.43 340.059 175.581 340.059 175.724 340.022C175.868 339.984 175.999 339.91 176.105 339.806C176.212 339.703 176.29 339.574 176.331 339.432C176.783 337.75 189.665 288.846 189.665 288.808C189.873 288.032 188.82 287.318 188.242 287.985H188.239Z" fill="#07342F"/>
<path d="M148.273 357.907C140.792 351.69 130.796 350.042 121.333 350.158C110.407 350.3 99.6026 352.468 89.4675 356.551C89.2742 356.611 89.1085 356.738 89.0001 356.909C88.8917 357.08 88.8474 357.284 88.8753 357.485C88.9015 357.685 88.9981 357.87 89.1479 358.007C89.2978 358.143 89.4911 358.221 89.6935 358.228C91.6167 358.28 147.633 359.358 147.667 359.358C147.832 359.352 147.992 359.298 148.128 359.204C148.265 359.11 148.371 358.979 148.435 358.827C148.5 358.674 148.519 358.506 148.49 358.343C148.461 358.18 148.386 358.028 148.273 357.907Z" fill="#07342F"/>
<path d="M94.339 190.534C94.0271 186.301 88.9421 184.866 85.1227 186.859C81.4876 189.161 78.5863 192.455 76.7607 196.351C75.8567 197.985 74.8375 199.549 73.9199 201.174C73.8473 201.304 73.8096 201.451 73.8106 201.6C73.8115 201.749 73.8509 201.895 73.9251 202.024C73.9993 202.153 74.1056 202.261 74.2338 202.337C74.362 202.413 74.5077 202.455 74.6567 202.458C77.1427 202.324 79.6287 202.121 82.0921 201.809C84.0313 201.594 85.9283 201.095 87.7217 200.326C89.648 199.501 91.2963 198.139 92.4696 196.403C93.643 194.666 94.2919 192.629 94.339 190.534Z" fill="#07342F"/>
<path d="M40.9666 228.088C41.4186 229.087 42.8921 228.222 42.4401 227.227C40.3858 222.709 24.6358 187.985 24.4098 187.58C24.5319 187.291 32.0938 170.673 42.4401 147.949C42.8921 146.956 41.4209 146.086 40.9666 147.088C38.8738 151.646 23.4019 185.444 22.7962 187.015C22.7089 187.284 22.6839 187.569 22.7231 187.849C22.7622 188.129 22.8645 188.396 23.0222 188.631C23.1555 188.936 40.7451 227.6 40.9666 228.088Z" fill="#07342F"/>
<path d="M134.877 154.281C137.776 152.035 140.676 149.79 143.578 147.549C143.737 147.388 143.827 147.17 143.827 146.944C143.827 146.718 143.737 146.5 143.578 146.339C143.416 146.183 143.199 146.095 142.973 146.095C142.748 146.095 142.531 146.183 142.369 146.339C142.369 146.339 133.211 153.386 132.913 153.657C132.235 154.378 132.935 154.918 133.458 155.323L142.38 162.22C142.543 162.374 142.759 162.46 142.983 162.46C143.208 162.46 143.424 162.374 143.587 162.22C143.747 162.06 143.836 161.843 143.836 161.617C143.836 161.391 143.747 161.174 143.587 161.014C140.68 158.774 137.777 156.53 134.877 154.281Z" fill="#07342F"/>
<path d="M134.877 132.029L143.578 125.299C143.738 125.139 143.827 124.922 143.827 124.695C143.827 124.469 143.738 124.252 143.578 124.092C143.416 123.935 143.199 123.847 142.973 123.847C142.748 123.847 142.531 123.935 142.369 124.092C139.535 126.284 133.211 131.139 132.913 131.408C132.235 132.129 132.935 132.671 133.458 133.076L142.38 139.969C142.543 140.124 142.759 140.21 142.983 140.21C143.208 140.21 143.424 140.124 143.587 139.969C143.746 139.808 143.835 139.592 143.835 139.366C143.835 139.141 143.746 138.924 143.587 138.764L134.877 132.029Z" fill="#07342F"/>
<path d="M134.877 109.273L143.578 102.541C143.738 102.381 143.827 102.164 143.827 101.937C143.827 101.711 143.738 101.494 143.578 101.334C143.416 101.177 143.199 101.09 142.973 101.09C142.748 101.09 142.531 101.177 142.369 101.334C139.535 103.526 133.211 108.381 132.913 108.652C132.235 109.37 132.935 109.913 133.458 110.317L142.38 117.215C142.544 117.37 142.76 117.456 142.986 117.456C143.211 117.456 143.428 117.37 143.591 117.215C143.671 117.136 143.734 117.042 143.777 116.938C143.82 116.835 143.842 116.724 143.842 116.612C143.842 116.499 143.82 116.388 143.777 116.285C143.734 116.181 143.671 116.087 143.591 116.008L134.877 109.273Z" fill="#07342F"/>
<path d="M221.932 153.228L213.021 146.33C212.857 146.177 212.642 146.092 212.417 146.092C212.193 146.092 211.977 146.177 211.814 146.33C211.655 146.491 211.565 146.709 211.565 146.935C211.565 147.161 211.655 147.379 211.814 147.54L220.515 154.27L211.814 161.005C211.654 161.165 211.564 161.382 211.564 161.608C211.564 161.834 211.654 162.051 211.814 162.212C211.976 162.368 212.192 162.455 212.417 162.455C212.642 162.455 212.859 162.368 213.021 162.212C213.021 162.212 222.178 155.165 222.477 154.894C223.146 154.182 222.454 153.642 221.934 153.228H221.932Z" fill="#07342F"/>
<path d="M213.841 132.648C214.519 131.927 213.818 131.385 213.298 130.983L204.385 124.085C204.222 123.932 204.006 123.846 203.782 123.846C203.557 123.846 203.342 123.932 203.178 124.085C203.018 124.245 202.929 124.462 202.929 124.689C202.929 124.915 203.018 125.132 203.178 125.292L211.879 132.025L203.174 138.764C203.014 138.924 202.924 139.142 202.924 139.369C202.924 139.595 203.014 139.813 203.174 139.973C203.336 140.129 203.552 140.215 203.777 140.215C204.002 140.215 204.218 140.129 204.38 139.973C207.219 137.772 213.542 132.92 213.841 132.648Z" fill="#07342F"/>
<path d="M193.548 109.273L184.847 116.006C184.688 116.167 184.598 116.384 184.598 116.61C184.598 116.837 184.688 117.054 184.847 117.215C185.01 117.37 185.226 117.457 185.451 117.457C185.675 117.457 185.892 117.37 186.054 117.215C188.888 115.02 195.212 110.168 195.51 109.897C196.188 109.176 195.487 108.634 194.965 108.229L186.054 101.334C185.891 101.179 185.675 101.093 185.451 101.093C185.226 101.093 185.01 101.179 184.847 101.334C184.687 101.494 184.598 101.711 184.598 101.937C184.598 102.163 184.687 102.38 184.847 102.541L193.548 109.273Z" fill="#07342F"/>
<path d="M422.436 147.076C421.984 146.077 420.51 146.941 420.962 147.935C423.017 152.455 438.771 187.18 438.992 187.596C437.862 190.274 428.761 210.083 420.962 227.227C420.51 228.219 421.981 229.089 422.436 228.088C424.519 223.51 440 189.72 440.606 188.15C440.691 187.88 440.715 187.596 440.676 187.316C440.637 187.036 440.536 186.769 440.38 186.534L422.436 147.076Z" fill="#07342F"/>
<path d="M113.138 77.7439C108.454 80.468 104.704 84.5439 102.378 89.4371C101.899 90.4202 103.372 91.2881 103.851 90.2982C106.107 85.7101 109.628 81.863 113.999 79.2106C114.183 79.091 114.314 78.9051 114.365 78.6914C114.415 78.4777 114.382 78.2528 114.271 78.0632C114.16 77.8736 113.981 77.7339 113.77 77.6732C113.559 77.6125 113.332 77.6354 113.138 77.7371V77.7439Z" fill="#07342F"/>
<path d="M111.727 72.546C105.407 75.4996 100.365 80.6358 97.53 87.01C97.078 88.0067 98.5606 88.8768 99.0036 87.8733C101.704 81.7578 106.529 76.8285 112.586 73.9992C113.585 73.5449 112.717 72.0714 111.727 72.546Z" fill="#07342F"/>
<path d="M20.887 275.453C17.9695 285.326 16.9563 295.663 17.9015 305.914C17.9964 306.998 19.7095 307.01 19.6078 305.914C18.8483 295.816 19.8423 285.664 22.5458 275.905C22.6013 275.688 22.5695 275.457 22.4571 275.263C22.3448 275.069 22.1608 274.926 21.9446 274.866C21.728 274.806 21.4967 274.835 21.3009 274.945C21.1051 275.055 20.9604 275.238 20.8983 275.453H20.887Z" fill="#07342F"/>
<path d="M15.4333 275.053C11.171 285.797 10.7574 294.729 11.7721 305.914C11.8693 306.998 13.5801 307.01 13.4784 305.914C12.2422 292.268 13.6818 284.111 17.0809 275.508C17.4854 274.484 15.8356 274.041 15.4333 275.053Z" fill="#07342F"/>
<path d="M251.703 246.6H230.856C230.638 246.612 230.432 246.707 230.281 246.866C230.13 247.025 230.046 247.235 230.045 247.454C230.046 247.673 230.131 247.883 230.282 248.041C230.433 248.199 230.638 248.294 230.856 248.306H251.703C251.877 248.315 252.05 248.271 252.198 248.179C252.346 248.087 252.463 247.951 252.532 247.791C252.577 247.684 252.6 247.57 252.599 247.454C252.598 247.338 252.575 247.224 252.529 247.117C252.483 247.011 252.416 246.915 252.333 246.835C252.249 246.755 252.15 246.693 252.042 246.652C251.933 246.611 251.818 246.593 251.703 246.6Z" fill="#07342F"/>
<path d="M243.298 232.186L230.172 242.462C229.307 243.14 230.523 244.34 231.379 243.671L244.505 233.392C245.371 232.714 244.155 231.514 243.298 232.186Z" fill="#07342F"/>
<path d="M231.459 252.27C230.605 251.592 229.387 252.801 230.252 253.477L241.968 262.639C242.824 263.317 244.04 262.11 243.175 261.432C239.266 258.383 235.361 255.329 231.459 252.27Z" fill="#07342F"/>
<path d="M283.362 230.174H376.551C376.776 230.17 376.991 230.079 377.151 229.92C377.31 229.76 377.401 229.545 377.405 229.32V159.606C377.402 159.38 377.311 159.165 377.151 159.006C376.992 158.846 376.776 158.755 376.551 158.752H283.362C283.137 158.756 282.922 158.848 282.763 159.007C282.604 159.166 282.512 159.381 282.508 159.606V229.32C282.512 229.545 282.603 229.761 282.761 229.921C282.922 230.079 283.137 230.17 283.362 230.174ZM284.216 162.456C284.216 161.807 284.248 161.127 284.237 160.46C284.237 160.46 372.18 160.555 375.699 160.46C375.699 160.46 375.665 227.788 375.676 228.455C375.676 228.455 285.181 228.382 284.216 228.414V162.456Z" fill="#07342F"/>
<path d="M381.294 158.752C381.068 158.755 380.852 158.845 380.693 159.005C380.533 159.165 380.442 159.38 380.439 159.606V229.32C380.444 229.545 380.534 229.761 380.693 229.921C380.853 230.079 381.068 230.17 381.294 230.174H409.04C409.265 230.17 409.48 230.079 409.639 229.92C409.799 229.76 409.89 229.545 409.894 229.32V159.606C409.891 159.38 409.799 159.165 409.64 159.006C409.481 158.846 409.265 158.755 409.04 158.752H381.294ZM408.156 228.466H382.148C382.148 228.466 382.218 163.025 382.148 160.46H408.179L408.156 228.466Z" fill="#07342F"/>
<path d="M409.041 232.739H283.362C283.137 232.743 282.922 232.835 282.763 232.994C282.603 233.153 282.512 233.368 282.508 233.594C282.348 256.585 282.836 259.416 281.604 264.838C280.76 268.759 279.058 272.444 276.621 275.629C274.185 278.814 271.074 281.421 267.511 283.262C257.284 289 246.877 286.297 239.035 292.478C227.775 301.339 229.615 315.586 225.798 327.108C225.765 327.235 225.761 327.367 225.786 327.496C225.812 327.625 225.867 327.746 225.946 327.85C226.026 327.954 226.128 328.039 226.245 328.097C226.363 328.156 226.492 328.187 226.623 328.188H352.299C352.486 328.188 352.668 328.127 352.817 328.014C352.965 327.901 353.073 327.742 353.124 327.562C356.688 316.902 355.368 303.877 363.952 295.389C371.43 287.99 382.561 290.552 392.88 285.354C396.41 283.66 399.571 281.284 402.181 278.363C404.79 275.443 406.797 272.035 408.085 268.337C410.255 261.882 409.913 257.337 409.913 233.594C409.909 233.365 409.815 233.148 409.652 232.988C409.489 232.828 409.269 232.739 409.041 232.739ZM407.274 264.831C406.428 268.751 404.725 272.435 402.289 275.621C399.853 278.806 396.742 281.413 393.18 283.255C382.954 288.991 372.544 286.29 364.704 292.471C353.63 301.193 355.212 315.175 351.657 326.475C351.657 326.475 229.088 326.362 227.784 326.412C230.908 315.975 229.983 303.57 238.262 295.382C245.745 287.983 256.871 290.548 267.19 285.348C270.719 283.651 273.879 281.275 276.488 278.355C279.097 275.434 281.104 272.028 282.393 268.33C284.397 262.368 284.221 256.157 284.221 249.965C284.221 233.115 284.33 236.439 284.239 234.439C284.239 234.439 406.792 234.565 408.191 234.482C408.187 255.999 408.514 259.407 407.274 264.838V264.831Z" fill="#07342F"/>
<path d="M351.071 330.783C350.902 330.737 308.389 330.756 225.189 330.756C225.004 330.76 224.824 330.823 224.677 330.935C224.529 331.048 224.42 331.204 224.367 331.382C219.991 345.412 205.261 344.521 193.043 348.474C189.345 349.627 185.895 351.463 182.873 353.887C182.279 354.37 182.79 355.344 183.477 355.344C281.85 355.344 303.144 355.473 307.908 355.369C309.777 355.328 309.553 355.202 309.759 355.093C320.25 346.551 335.509 349.098 345.261 341.441C348.324 338.959 350.567 335.612 351.697 331.836C351.727 331.726 351.733 331.611 351.718 331.498C351.702 331.385 351.664 331.276 351.605 331.178C351.547 331.08 351.47 330.994 351.378 330.927C351.286 330.859 351.182 330.81 351.071 330.783ZM318.713 348.474C315.152 349.592 311.822 351.342 308.879 353.638C308.879 353.638 186.973 353.595 186.161 353.575C191.273 350.672 196.866 348.719 202.673 347.807C208.529 346.526 214.75 345.229 219.573 341.441C222.438 339.086 224.587 335.975 225.775 332.462C225.775 332.462 348.328 332.559 349.623 332.523C344.827 345.378 330.693 344.598 318.713 348.474Z" fill="#07342F"/>
<path d="M304.942 359.277C204.101 359.277 184.306 359.13 180.233 359.313C178.877 359.376 178.674 359.503 178.588 359.645C176.429 362.396 174.863 365.564 173.989 368.95C173.956 369.076 173.952 369.209 173.978 369.337C174.004 369.465 174.058 369.586 174.137 369.69C174.217 369.794 174.318 369.879 174.435 369.937C174.552 369.996 174.681 370.028 174.811 370.03H300.49C300.676 370.027 300.856 369.965 301.004 369.852C301.152 369.74 301.26 369.583 301.313 369.404C302.155 366.191 303.64 363.183 305.679 360.561C306.088 360.018 305.527 359.277 304.942 359.277ZM299.864 368.317C299.864 368.317 177.297 368.245 175.987 368.276C176.811 365.653 178.069 363.186 179.709 360.979C179.709 360.979 302.128 361.035 303.281 361.028C301.763 363.264 300.609 365.726 299.864 368.324V368.317Z" fill="#07342F"/>
<path d="M283.362 156.189H409.041C409.267 156.185 409.482 156.094 409.642 155.934C409.801 155.774 409.892 155.558 409.895 155.332V87.5141C409.892 87.2886 409.8 87.0733 409.641 86.9139C409.481 86.7544 409.266 86.6633 409.041 86.6598H283.362C283.137 86.6639 282.922 86.7552 282.763 86.9145C282.603 87.0738 282.512 87.2888 282.508 87.5141V155.332C282.512 155.557 282.604 155.772 282.763 155.931C282.922 156.09 283.137 156.182 283.362 156.186V156.189ZM379.066 88.3661C379.066 88.3661 406.774 88.4452 408.186 88.3932V104.679H379.066V88.3661ZM312.672 88.3661H377.36V104.679H312.672V88.3661ZM284.216 88.3661H310.963V104.679C310.963 104.679 285.629 104.597 284.216 104.652V88.3661ZM284.244 106.387C284.244 106.387 406.774 106.469 408.186 106.414C408.186 106.414 408.134 152.722 408.186 154.476C408.186 154.476 285.638 154.394 284.225 154.453C284.216 99.3384 284.205 108.677 284.244 106.39V106.387Z" fill="#07342F"/>
<path d="M299.959 372.762H174.28C174.053 372.762 173.836 372.852 173.676 373.012C173.516 373.173 173.426 373.39 173.426 373.617C173.426 373.843 173.516 374.06 173.676 374.221C173.836 374.381 174.053 374.471 174.28 374.471H299.959C300.185 374.471 300.403 374.381 300.563 374.221C300.723 374.06 300.813 373.843 300.813 373.617C300.813 373.39 300.723 373.173 300.563 373.012C300.403 372.852 300.185 372.762 299.959 372.762Z" fill="#07342F"/>
<path d="M299.959 377.847H174.28C174.053 377.847 173.836 377.937 173.676 378.097C173.516 378.258 173.426 378.475 173.426 378.701C173.426 378.928 173.516 379.145 173.676 379.306C173.836 379.466 174.053 379.556 174.28 379.556H299.959C300.185 379.556 300.403 379.466 300.563 379.306C300.723 379.145 300.813 378.928 300.813 378.701C300.813 378.475 300.723 378.258 300.563 378.097C300.403 377.937 300.185 377.847 299.959 377.847Z" fill="#07342F"/>
<path d="M401.926 93.0668H385.091C384.88 93.0886 384.685 93.1877 384.543 93.3451C384.401 93.5025 384.322 93.7069 384.322 93.9189C384.322 94.1308 384.401 94.3352 384.543 94.4926C384.685 94.65 384.88 94.7491 385.091 94.7709H401.926C402.139 94.7518 402.337 94.6537 402.482 94.4958C402.626 94.3379 402.706 94.1317 402.706 93.9177C402.706 93.7037 402.626 93.4975 402.482 93.3396C402.337 93.1817 402.139 93.0836 401.926 93.0646V93.0668Z" fill="#07342F"/>
<path d="M401.828 98.0388H384.991C384.778 98.0578 384.58 98.1559 384.435 98.3138C384.291 98.4717 384.211 98.678 384.211 98.892C384.211 99.106 384.291 99.3122 384.435 99.4701C384.58 99.628 384.778 99.7261 384.991 99.7451H401.828C402.042 99.7261 402.24 99.628 402.384 99.4701C402.529 99.3122 402.609 99.106 402.609 98.892C402.609 98.678 402.529 98.4717 402.384 98.3138C402.24 98.1559 402.042 98.0578 401.828 98.0388Z" fill="#07342F"/>
<path d="M293.292 101.528C302.106 101.589 301.893 101.65 302.232 101.221C302.535 100.9 302.506 101.345 302.445 92.3753C302.444 92.1491 302.353 91.9325 302.193 91.7725C302.033 91.6126 301.817 91.5222 301.591 91.521H293.292C293.066 91.5245 292.851 91.6156 292.692 91.7751C292.532 91.9345 292.441 92.1498 292.438 92.3753V100.674C292.442 100.899 292.533 101.114 292.692 101.274C292.852 101.433 293.066 101.524 293.292 101.528ZM294.144 93.2273H300.736V99.8197H294.144V93.2273Z" fill="#07342F"/>
<path d="M357.516 252.948C356.432 253.788 355.559 254.87 354.967 256.107C354.376 257.344 354.081 258.703 354.108 260.074C353.78 263.464 354.54 266.296 352.612 269.286C352.039 270.203 351.126 270.856 350.074 271.104C349.022 271.352 347.914 271.174 346.991 270.61C341.063 266.942 347.62 256.436 340.198 252.223C338.845 251.503 337.294 251.245 335.782 251.489C334.269 251.733 332.877 252.465 331.82 253.574C331.118 254.309 330.584 255.187 330.254 256.149C328.898 260.042 330.559 264.33 328.471 268.02C326.649 271.74 321.415 270.669 320.152 266.592C319.323 261.933 319.141 257.182 319.612 252.474C319.725 251.382 318.016 251.389 317.905 252.474C317.491 256.481 317.539 260.523 318.048 264.52C317.993 266.366 318.638 268.165 319.853 269.556C321.068 270.948 322.764 271.829 324.602 272.023C328.959 272.287 330.979 267.81 331.282 264.144C331.267 261.894 331.406 259.645 331.7 257.414C331.877 256.486 332.299 255.623 332.921 254.912C333.543 254.201 334.343 253.669 335.239 253.371C336.137 253.074 337.097 253.023 338.021 253.223C338.944 253.422 339.798 253.866 340.492 254.508C341.287 255.478 341.874 256.603 342.216 257.811C342.557 259.018 342.646 260.284 342.476 261.527C342.27 263.815 342.49 266.12 343.125 268.328C343.485 269.329 344.059 270.24 344.807 270.997C345.556 271.753 346.46 272.338 347.457 272.71C351.525 273.93 354.865 270.653 355.482 266.495C356.185 262.538 354.847 256.969 358.33 254.456C359.024 254.061 359.808 253.85 360.606 253.841C361.405 253.833 362.193 254.028 362.895 254.408C367.718 257.048 366.511 264.933 365.765 270.746C365.634 271.835 367.347 271.826 367.474 270.746C367.847 268.124 368.057 265.482 368.1 262.836C368.202 260.605 367.799 258.38 366.92 256.327C366.556 255.462 366.015 254.682 365.333 254.036C364.651 253.391 363.842 252.894 362.958 252.578C362.075 252.26 361.135 252.128 360.198 252.192C359.262 252.256 358.348 252.513 357.516 252.948Z" fill="#07342F"/>
<path d="M335.851 139.709C336.129 139.867 334.689 139.819 356.143 139.819C356.29 139.811 356.433 139.767 356.558 139.69C356.684 139.613 356.788 139.506 356.862 139.379C356.935 139.251 356.976 139.107 356.979 138.96C356.982 138.812 356.948 138.666 356.88 138.536C354.102 133.48 347.35 122.176 346.936 121.471C346.817 121.276 346.626 121.136 346.405 121.08C346.182 121.026 345.947 121.062 345.752 121.181C345.469 121.355 346.152 119.999 335.521 138.536C335.435 138.684 335.396 138.854 335.409 139.025C335.422 139.196 335.486 139.358 335.593 139.492C335.664 139.58 335.752 139.654 335.851 139.709ZM346.201 123.597L354.658 138.113H337.744C338.425 136.956 345.526 124.752 346.201 123.597Z" fill="#07342F"/>
<path d="M346.436 91.6453C346.378 91.548 346.301 91.4633 346.21 91.3959C346.118 91.3285 346.015 91.2799 345.905 91.2528C345.795 91.2257 345.68 91.2207 345.568 91.238C345.456 91.2553 345.349 91.2947 345.252 91.3537C344.976 91.5232 345.195 91.069 339.602 100.846C339.546 100.943 339.51 101.05 339.495 101.161C339.481 101.272 339.489 101.385 339.518 101.493C339.547 101.601 339.597 101.702 339.665 101.791C339.734 101.88 339.819 101.954 339.916 102.01C340.044 102.086 340.19 102.127 340.339 102.129H351.065C351.212 102.121 351.354 102.077 351.48 102C351.605 101.923 351.709 101.816 351.783 101.689C351.857 101.561 351.897 101.417 351.9 101.27C351.903 101.122 351.869 100.977 351.801 100.846L346.436 91.6475V91.6453ZM341.821 100.428L345.699 93.7719L349.577 100.428H341.821Z" fill="#07342F"/>
<path d="M313.714 187.727H347.151C347.313 187.717 347.469 187.661 347.601 187.566C347.733 187.47 347.835 187.34 347.895 187.188C347.956 187.037 347.972 186.872 347.942 186.712C347.912 186.552 347.838 186.404 347.727 186.285C347.576 186.126 347.37 186.032 347.151 186.021H313.714C313.501 186.04 313.303 186.138 313.158 186.296C313.014 186.454 312.934 186.66 312.934 186.874C312.934 187.088 313.014 187.294 313.158 187.452C313.303 187.61 313.501 187.708 313.714 187.727Z" fill="#07342F"/>
<path d="M313.715 194.134H346.912C347.125 194.115 347.323 194.017 347.468 193.859C347.612 193.701 347.692 193.495 347.692 193.281C347.692 193.067 347.612 192.861 347.468 192.703C347.323 192.545 347.125 192.447 346.912 192.428H313.712C313.55 192.438 313.394 192.494 313.262 192.589C313.13 192.684 313.028 192.815 312.968 192.966C312.907 193.117 312.891 193.282 312.921 193.442C312.951 193.602 313.025 193.75 313.136 193.87C313.287 194.028 313.494 194.123 313.712 194.134H313.715Z" fill="#07342F"/>
<path d="M313.237 199.82H347.137C347.351 199.801 347.549 199.703 347.693 199.545C347.838 199.387 347.918 199.181 347.918 198.967C347.918 198.753 347.838 198.547 347.693 198.389C347.549 198.231 347.351 198.133 347.137 198.114H313.237C313.024 198.133 312.826 198.231 312.682 198.389C312.537 198.547 312.457 198.753 312.457 198.967C312.457 199.181 312.537 199.387 312.682 199.545C312.826 199.703 313.024 199.801 313.237 199.82Z" fill="#07342F"/>
<path d="M367.382 169.701L372.517 164.874C373.319 164.121 372.11 162.914 371.31 163.667L366.175 168.494C365.373 169.247 366.573 170.454 367.382 169.701Z" fill="#07342F"/>
<path d="M367.75 220.221L372.044 224.113C372.856 224.85 374.078 223.647 373.251 222.906L368.957 219.014C368.155 218.278 366.934 219.482 367.75 220.221Z" fill="#07342F"/>
<path d="M291.314 169.15C292.123 169.891 293.334 168.698 292.523 167.943C291.009 166.553 289.575 165.077 288.229 163.525C287.505 162.695 286.303 163.909 287.022 164.731C288.369 166.284 289.802 167.76 291.314 169.15Z" fill="#07342F"/>
<path d="M291.495 220.149C290.085 221.073 288.722 222.061 287.407 223.116C286.548 223.794 287.764 225.001 288.614 224.323C289.819 223.365 291.068 222.465 292.359 221.625C293.274 221.028 292.42 219.548 291.495 220.149Z" fill="#07342F"/>
<path d="M388.292 174.924H401.273C401.478 174.894 401.666 174.791 401.802 174.634C401.937 174.478 402.012 174.277 402.012 174.07C402.012 173.862 401.937 173.662 401.802 173.505C401.666 173.348 401.478 173.245 401.273 173.215H388.292C388.065 173.215 387.848 173.305 387.688 173.466C387.528 173.626 387.438 173.843 387.438 174.07C387.438 174.296 387.528 174.514 387.688 174.674C387.848 174.834 388.065 174.924 388.292 174.924Z" fill="#07342F"/>
<path d="M401.276 179.729H388.294C388.081 179.748 387.883 179.846 387.738 180.004C387.594 180.162 387.514 180.368 387.514 180.582C387.514 180.796 387.594 181.002 387.738 181.16C387.883 181.318 388.081 181.416 388.294 181.435H401.276C401.391 181.44 401.507 181.422 401.615 181.382C401.724 181.342 401.824 181.281 401.908 181.202C401.993 181.123 402.061 181.027 402.107 180.92C402.153 180.813 402.177 180.698 402.177 180.582C402.177 180.466 402.153 180.351 402.107 180.244C402.061 180.137 401.993 180.041 401.908 179.962C401.824 179.882 401.725 179.82 401.616 179.78C401.507 179.739 401.391 179.722 401.276 179.729Z" fill="#07342F"/>
<path d="M388.292 187.727H401.273C401.5 187.727 401.717 187.637 401.877 187.477C402.037 187.317 402.127 187.099 402.127 186.873C402.127 186.646 402.037 186.429 401.877 186.269C401.717 186.108 401.5 186.018 401.273 186.018H388.292C388.065 186.018 387.848 186.108 387.688 186.269C387.528 186.429 387.438 186.646 387.438 186.873C387.438 187.099 387.528 187.317 387.688 187.477C387.848 187.637 388.065 187.727 388.292 187.727Z" fill="#07342F"/>
<path d="M388.293 194.134H401.274C401.39 194.14 401.506 194.122 401.615 194.081C401.724 194.041 401.823 193.979 401.907 193.899C401.991 193.819 402.059 193.723 402.105 193.617C402.151 193.51 402.175 193.396 402.176 193.28C402.175 193.105 402.12 192.934 402.02 192.791C401.92 192.647 401.779 192.537 401.616 192.475C401.507 192.435 401.39 192.417 401.274 192.423H388.293C388.066 192.423 387.848 192.513 387.688 192.674C387.528 192.834 387.438 193.052 387.438 193.279C387.438 193.506 387.528 193.723 387.688 193.884C387.848 194.044 388.066 194.134 388.293 194.134Z" fill="#07342F"/>
<path d="M401.276 203.206H388.294C388.081 203.225 387.883 203.323 387.738 203.481C387.594 203.639 387.514 203.845 387.514 204.059C387.514 204.273 387.594 204.479 387.738 204.637C387.883 204.795 388.081 204.893 388.294 204.912H401.276C401.481 204.883 401.67 204.781 401.807 204.624C401.943 204.468 402.02 204.268 402.021 204.06C402.02 203.852 401.944 203.651 401.807 203.494C401.67 203.337 401.482 203.235 401.276 203.206Z" fill="#07342F"/>
<path d="M401.276 209.608H388.294C388.132 209.618 387.976 209.674 387.844 209.77C387.712 209.865 387.61 209.996 387.55 210.147C387.489 210.298 387.473 210.463 387.503 210.623C387.533 210.783 387.607 210.931 387.718 211.05C387.869 211.209 388.076 211.303 388.294 211.315H401.276C401.475 211.278 401.655 211.172 401.784 211.016C401.914 210.86 401.985 210.664 401.985 210.462C401.985 210.259 401.914 210.063 401.784 209.907C401.655 209.751 401.475 209.646 401.276 209.608Z" fill="#07342F"/>
<path d="M113.087 102.464V191.926C113.067 194.056 113.477 196.169 114.293 198.136C115.109 200.104 116.314 201.886 117.837 203.377C119.359 204.867 121.167 206.034 123.152 206.807C125.137 207.581 127.257 207.946 129.387 207.879C215.694 208.017 225.355 208.035 227.873 207.597C231.274 206.95 234.361 205.182 236.639 202.575C238.918 199.969 240.258 196.674 240.445 193.216C240.488 192.502 240.868 181.835 240.472 104.037C240.518 102.043 240.366 100.049 240.02 98.084C239.167 94.8304 237.266 91.9485 234.61 89.8836C231.955 87.8186 228.694 86.6856 225.33 86.6597H128.785C126.695 86.5865 124.612 86.9461 122.668 87.7159C120.723 88.4857 118.958 89.649 117.484 91.1329C116.01 92.6168 114.859 94.3893 114.102 96.3391C113.346 98.289 113 100.374 113.087 102.464ZM128.229 88.3682H225.333C228.731 88.3987 231.994 89.7038 234.477 92.0253C236.959 94.3468 238.479 97.5156 238.737 100.904C238.807 102.034 238.802 192.735 238.671 193.996C238.263 197.356 236.638 200.45 234.104 202.693C231.569 204.936 228.301 206.173 224.917 206.171H129.267C127.44 206.245 125.617 205.958 123.902 205.327C122.186 204.696 120.612 203.733 119.268 202.493C117.925 201.253 116.839 199.761 116.073 198.101C115.307 196.442 114.875 194.647 114.803 192.821C114.789 192.407 114.803 191.991 114.803 191.578V102.346C114.739 100.539 115.038 98.737 115.684 97.0476C116.329 95.3582 117.308 93.8158 118.561 92.5118C119.814 91.2078 121.317 90.1689 122.979 89.4567C124.641 88.7445 126.43 88.3736 128.238 88.366L128.229 88.3682Z" fill="#07342F"/>
<path d="M269.844 300.614H248.86C248.634 300.614 248.416 300.704 248.256 300.864C248.096 301.024 248.006 301.242 248.006 301.468C248.006 301.695 248.096 301.912 248.256 302.072C248.416 302.233 248.634 302.323 248.86 302.323H269.844C270.071 302.323 270.288 302.233 270.448 302.072C270.609 301.912 270.699 301.695 270.699 301.468C270.699 301.242 270.609 301.024 270.448 300.864C270.288 300.704 270.071 300.614 269.844 300.614Z" fill="#07342F"/>
<path d="M267.709 305.258H247.792C247.573 305.27 247.367 305.365 247.217 305.524C247.066 305.683 246.981 305.893 246.98 306.112C246.982 306.331 247.067 306.541 247.217 306.699C247.368 306.858 247.574 306.952 247.792 306.964H267.709C267.927 306.952 268.133 306.858 268.284 306.699C268.434 306.541 268.519 306.331 268.521 306.112C268.52 305.893 268.435 305.683 268.284 305.524C268.134 305.365 267.928 305.27 267.709 305.258Z" fill="#07342F"/>
<path d="M353.917 292.986H247.069C246.843 292.986 246.625 293.076 246.465 293.237C246.305 293.397 246.215 293.614 246.215 293.841C246.215 294.067 246.305 294.285 246.465 294.445C246.625 294.605 246.843 294.695 247.069 294.695H353.917C354.144 294.695 354.361 294.605 354.521 294.445C354.682 294.285 354.772 294.067 354.772 293.841C354.772 293.614 354.682 293.397 354.521 293.237C354.361 293.076 354.144 292.986 353.917 292.986Z" fill="#07342F"/>
<path d="M334.82 300.614H299.225C298.999 300.614 298.782 300.704 298.621 300.864C298.461 301.024 298.371 301.242 298.371 301.468C298.371 301.695 298.461 301.912 298.621 302.072C298.782 302.232 298.999 302.322 299.225 302.322H334.82C334.935 302.327 335.049 302.307 335.156 302.266C335.263 302.224 335.36 302.161 335.442 302.081C335.525 302.002 335.592 301.907 335.637 301.802C335.682 301.696 335.705 301.583 335.704 301.468C335.705 301.353 335.683 301.239 335.639 301.133C335.595 301.026 335.531 300.93 335.449 300.849C335.366 300.768 335.268 300.705 335.159 300.665C335.051 300.624 334.936 300.607 334.82 300.614Z" fill="#07342F"/>
<path d="M331.199 305.258H297.417C297.198 305.27 296.992 305.365 296.842 305.524C296.691 305.683 296.606 305.893 296.605 306.112C296.607 306.331 296.692 306.541 296.842 306.699C296.993 306.858 297.199 306.952 297.417 306.964H331.204C331.32 306.971 331.436 306.954 331.544 306.914C331.653 306.874 331.753 306.812 331.837 306.732C331.92 306.651 331.986 306.555 332.031 306.449C332.076 306.342 332.1 306.228 332.101 306.112C332.102 305.997 332.079 305.882 332.034 305.775C331.988 305.669 331.921 305.573 331.837 305.493C331.753 305.412 331.654 305.349 331.545 305.309C331.436 305.269 331.32 305.251 331.204 305.258H331.199Z" fill="#07342F"/>
<path d="M264.373 290.774L274.091 288.53C275.162 288.283 274.708 286.638 273.639 286.885L263.921 289.129C262.85 289.375 263.302 291.023 264.373 290.774Z" fill="#07342F"/>
<path d="M359.235 290.589L351.893 287.917C350.858 287.542 350.412 289.19 351.441 289.563L358.783 292.234C359.816 292.611 360.261 290.962 359.235 290.589Z" fill="#07342F"/>
<path d="M288.111 238.405C290.226 239.212 292.287 240.159 294.278 241.239C295.243 241.763 296.107 240.29 295.139 239.766C293.017 238.618 290.821 237.613 288.565 236.758C287.537 236.367 287.094 238.016 288.111 238.405Z" fill="#07342F"/>
<path d="M404.577 236.396L398.626 239.677C397.663 240.209 398.524 241.684 399.487 241.151L405.438 237.869C406.4 237.329 405.539 235.856 404.577 236.396Z" fill="#07342F"/>
<path d="M316.568 92.1267C316.406 91.9787 316.193 91.899 315.973 91.904C315.753 91.9091 315.544 91.9986 315.389 92.154C315.234 92.3094 315.144 92.5187 315.139 92.7383C315.134 92.958 315.214 93.1712 315.362 93.3336C317.848 95.9054 320.376 98.4344 322.948 100.923C323.109 101.079 323.325 101.165 323.549 101.164C323.773 101.162 323.988 101.072 324.146 100.914C324.305 100.756 324.395 100.541 324.397 100.317C324.399 100.093 324.313 99.877 324.157 99.7158C321.67 97.1443 319.14 94.6143 316.568 92.1267Z" fill="#07342F"/>
<path d="M322.855 91.304C322.695 91.144 322.478 91.0541 322.252 91.0541C322.025 91.0541 321.808 91.144 321.648 91.304C321.488 91.4641 321.398 91.6811 321.398 91.9074C321.398 92.1338 321.488 92.3508 321.648 92.5109L330.065 100.929C330.226 101.085 330.441 101.172 330.665 101.17C330.89 101.169 331.104 101.079 331.263 100.921C331.421 100.762 331.511 100.548 331.513 100.324C331.516 100.1 331.429 99.8837 331.274 99.7225C328.517 96.8669 325.711 94.0603 322.855 91.304Z" fill="#07342F"/>
<path d="M353.254 91.304C353.093 91.148 352.877 91.0615 352.653 91.0631C352.429 91.0648 352.214 91.1544 352.055 91.3128C351.897 91.4711 351.807 91.6854 351.805 91.9096C351.803 92.1337 351.889 92.3496 352.044 92.5109C354.803 95.365 357.61 98.1716 360.465 100.929C360.589 101.045 360.744 101.122 360.91 101.15C361.077 101.178 361.249 101.155 361.403 101.085C361.526 101.028 361.634 100.943 361.717 100.837C361.801 100.73 361.858 100.605 361.885 100.472C361.911 100.339 361.905 100.202 361.868 100.072C361.831 99.9416 361.764 99.8219 361.672 99.7225L353.254 91.304Z" fill="#07342F"/>
<path d="M161.851 137.745C162.136 137.907 161.04 138.274 177.036 137.855C177.184 137.849 177.327 137.805 177.453 137.728C177.579 137.651 177.684 137.544 177.757 137.416C177.831 137.288 177.871 137.144 177.874 136.996C177.877 136.849 177.843 136.703 177.775 136.572C175.71 132.811 170.69 124.411 170.385 123.889C170.327 123.792 170.25 123.708 170.159 123.641C170.067 123.574 169.964 123.525 169.854 123.499C169.744 123.472 169.63 123.467 169.519 123.484C169.407 123.501 169.3 123.54 169.203 123.599C168.916 123.771 169.479 122.921 161.519 136.572C161.408 136.771 161.381 137.007 161.443 137.227C161.505 137.447 161.652 137.633 161.851 137.745ZM169.648 126.015L175.551 136.149H163.745L169.648 126.015Z" fill="#07342F"/>
<path d="M180.99 137.747C181.275 137.908 180.181 138.274 196.177 137.856C196.324 137.848 196.467 137.804 196.593 137.727C196.719 137.65 196.823 137.543 196.896 137.415C196.97 137.287 197.01 137.143 197.013 136.996C197.016 136.848 196.982 136.703 196.914 136.572C194.848 132.811 189.829 124.413 189.526 123.889C189.467 123.792 189.39 123.707 189.299 123.64C189.208 123.573 189.104 123.524 188.994 123.498C188.884 123.471 188.77 123.466 188.658 123.483C188.546 123.501 188.438 123.54 188.342 123.599C188.023 123.792 188.536 123.105 180.658 136.572C180.602 136.671 180.566 136.78 180.553 136.892C180.539 137.005 180.548 137.119 180.579 137.229C180.61 137.338 180.662 137.44 180.733 137.529C180.803 137.618 180.891 137.692 180.99 137.747ZM188.789 126.018L194.692 136.149H182.886L188.789 126.015V126.018Z" fill="#07342F"/>
<path d="M176.534 147.4H165.098C164.873 147.403 164.658 147.494 164.499 147.654C164.34 147.813 164.249 148.029 164.246 148.254V159.689C164.25 159.914 164.34 160.129 164.5 160.288C164.659 160.447 164.873 160.538 165.098 160.541C177.939 160.632 176.728 160.634 177.135 160.286C177.499 159.897 177.474 160.643 177.388 148.254C177.385 148.028 177.294 147.813 177.135 147.653C176.975 147.493 176.759 147.402 176.534 147.4ZM175.679 158.835H165.961V149.117H175.679V158.835Z" fill="#07342F"/>
<path d="M193.734 147.411L186.346 160.094C186.29 160.192 186.254 160.301 186.241 160.413C186.227 160.526 186.236 160.639 186.266 160.748C186.297 160.857 186.348 160.959 186.418 161.048C186.488 161.137 186.575 161.212 186.674 161.267C186.974 161.436 186.018 161.378 201.861 161.378C202.008 161.37 202.151 161.325 202.276 161.248C202.401 161.171 202.505 161.064 202.579 160.936C202.652 160.809 202.692 160.665 202.695 160.517C202.699 160.37 202.665 160.225 202.598 160.094L195.208 147.411C195.131 147.284 195.023 147.179 194.894 147.106C194.765 147.034 194.619 146.995 194.471 146.995C194.323 146.995 194.177 147.034 194.048 147.106C193.919 147.179 193.811 147.284 193.734 147.411ZM188.568 159.669L194.471 149.537L200.376 159.669H188.568Z" fill="#07342F"/>
<path d="M158.768 146.997L147.172 158.593C147.024 158.756 146.944 158.969 146.949 159.189C146.955 159.408 147.044 159.617 147.199 159.773C147.355 159.928 147.564 160.018 147.784 160.023C148.003 160.028 148.217 159.948 148.379 159.8C152.311 156.003 156.176 152.139 159.977 148.206C160.138 148.046 160.228 147.829 160.228 147.602C160.228 147.375 160.138 147.158 159.977 146.997C159.817 146.837 159.599 146.747 159.373 146.747C159.146 146.747 158.929 146.837 158.768 146.997Z" fill="#07342F"/>
<path d="M148.379 115.396C152.311 111.599 156.176 107.73 159.977 103.795C160.133 103.634 160.219 103.418 160.217 103.194C160.215 102.97 160.125 102.755 159.966 102.597C159.808 102.439 159.593 102.349 159.369 102.347C159.145 102.346 158.929 102.432 158.768 102.588L147.172 114.187C147.024 114.349 146.944 114.562 146.949 114.782C146.955 115.001 147.044 115.211 147.199 115.366C147.355 115.521 147.564 115.611 147.784 115.616C148.003 115.621 148.217 115.541 148.379 115.393V115.396Z" fill="#07342F"/>
<path d="M148.379 137.686C152.312 133.885 156.176 130.018 159.978 126.088C160.133 125.927 160.22 125.711 160.217 125.486C160.215 125.262 160.125 125.048 159.967 124.89C159.808 124.731 159.594 124.642 159.369 124.64C159.145 124.638 158.93 124.725 158.769 124.881C154.84 128.683 150.974 132.549 147.173 136.477C147.017 136.638 146.93 136.854 146.932 137.078C146.933 137.302 147.023 137.516 147.181 137.675C147.34 137.834 147.554 137.924 147.778 137.926C148.002 137.928 148.218 137.842 148.379 137.686Z" fill="#07342F"/>
<path d="M126.106 116.442C126.322 116.435 126.527 116.346 126.68 116.193C126.834 116.04 126.923 115.835 126.931 115.619V103.37C126.92 103.151 126.825 102.945 126.666 102.795C126.507 102.644 126.297 102.56 126.078 102.56C125.859 102.56 125.648 102.644 125.489 102.795C125.331 102.945 125.236 103.151 125.225 103.37V115.619C125.233 115.845 125.33 116.059 125.495 116.213C125.661 116.367 125.88 116.449 126.106 116.442Z" fill="#07342F"/>
<path d="M126.106 138.99C126.322 138.983 126.528 138.894 126.681 138.741C126.834 138.587 126.924 138.382 126.931 138.165V125.909C126.92 125.691 126.825 125.485 126.666 125.334C126.507 125.183 126.297 125.099 126.078 125.099C125.859 125.099 125.648 125.183 125.489 125.334C125.331 125.485 125.236 125.691 125.225 125.909V138.161C125.232 138.387 125.329 138.602 125.494 138.757C125.659 138.913 125.879 138.996 126.106 138.99Z" fill="#07342F"/>
<path d="M126.111 161.283C126.326 161.274 126.53 161.185 126.682 161.032C126.834 160.88 126.923 160.675 126.931 160.46V148.206C126.92 147.988 126.825 147.782 126.666 147.631C126.507 147.48 126.297 147.396 126.078 147.396C125.859 147.396 125.648 147.48 125.489 147.631C125.331 147.782 125.236 147.988 125.225 148.206V160.46C125.234 160.686 125.332 160.9 125.498 161.054C125.664 161.208 125.884 161.29 126.111 161.283Z" fill="#07342F"/>
<path d="M126.106 183.498C126.322 183.49 126.527 183.4 126.68 183.247C126.833 183.095 126.923 182.89 126.931 182.673V170.424C126.92 170.206 126.825 170 126.666 169.849C126.507 169.698 126.297 169.614 126.078 169.614C125.859 169.614 125.648 169.698 125.489 169.849C125.331 170 125.236 170.206 125.225 170.424V182.673C125.232 182.9 125.329 183.114 125.495 183.268C125.66 183.423 125.88 183.506 126.106 183.498Z" fill="#07342F"/>
<path d="M165.319 288.812C162.928 289.079 111.305 294.512 105.203 295.122C101.384 289.648 97.9962 284.952 93.8876 279.668C102.172 283.481 111.348 284.93 120.404 283.856C129.398 282.761 137.795 278.777 144.331 272.502H187.167C192.196 272.468 197.148 271.263 201.63 268.981C206.112 266.699 210 263.403 212.985 259.355C215.073 256.334 212.605 259.387 232.728 226.052C233.603 224.627 234.082 222.994 234.116 221.322C234.146 219.65 233.731 218 232.912 216.542C232.093 215.085 230.9 213.871 229.456 213.028C228.011 212.186 226.367 211.745 224.694 211.751H131.955C128.4 211.617 124.844 212.009 121.403 212.915C112.951 215.457 107.719 220.779 103.567 228.613L102.015 231.261L102.001 231.316C101.822 231.566 101.825 231.587 98.1296 237.888C93.6987 233.612 88.7256 229.937 83.3379 226.956C81.0604 225.746 78.5215 225.11 75.9423 225.105C73.3631 225.1 70.8217 225.725 68.5394 226.927C53.9782 234.536 36.9333 255.039 30.5511 285.752C29.0197 294.43 28.3761 303.241 28.6301 312.05C28.0936 318.351 29.3016 324.679 32.1218 330.34C33.6038 332.798 35.6162 334.893 38.0119 336.474C40.4076 338.054 43.1261 339.079 45.9688 339.475C49.5848 340.065 48.9384 339.904 82.0836 339.904C82.5763 341.66 83.017 343.427 83.487 345.188C83.5369 345.368 83.6446 345.528 83.7936 345.641C83.9426 345.755 84.1247 345.816 84.3119 345.816H136.938C137.088 345.815 137.234 345.774 137.363 345.698C137.491 345.621 137.597 345.513 137.671 345.382C137.745 345.253 137.785 345.106 137.786 344.957C137.787 344.808 137.749 344.66 137.675 344.53C136.645 343.003 135.641 341.45 134.642 339.904H165.319C165.545 339.902 165.761 339.812 165.92 339.653C166.079 339.493 166.17 339.277 166.171 339.052V289.671C166.184 289.556 166.17 289.439 166.132 289.33C166.094 289.221 166.031 289.121 165.95 289.039C165.868 288.957 165.769 288.894 165.66 288.855C165.551 288.815 165.435 288.801 165.319 288.812ZM139.623 274.278C127.003 283.852 108.422 285.662 91.4535 276.606C89.6455 274.382 87.7562 272.222 85.7787 270.151C91.4287 261.337 95.8492 252.325 102.589 244.46C104.654 246.494 106.67 248.62 108.84 250.562C109.877 251.662 111.188 252.469 112.638 252.898C114.088 253.328 115.626 253.367 117.096 253.009C120.324 251.663 122.955 249.194 124.504 246.058C128.402 239.61 133.078 233.666 138.425 228.36C140.922 225.763 143.725 223.48 146.772 221.559C152.058 218.282 159.561 217.997 163.527 222.904C163.979 223.473 164.352 224.108 164.806 224.685C165.595 225.984 166.415 226.041 167.758 226.594C168.96 227.08 170.142 227.618 171.326 228.145C172.343 228.581 173.306 229.128 174.203 229.774C175.935 231.3 178.83 234.111 177.322 236.651C175.74 239.302 172.079 238.365 169.864 237.3C169.057 236.914 168.018 237.992 168.829 238.64C170.717 240.136 172.264 242.017 173.367 244.157C174.398 246.168 175.485 249.016 174.149 251.129C173.894 251.585 173.51 251.956 173.044 252.194C172.579 252.431 172.053 252.526 171.534 252.465C170.326 252.174 169.192 251.635 168.203 250.883C166.125 249.547 164.29 247.865 162.779 245.911C162.702 245.785 162.594 245.68 162.465 245.608C162.336 245.536 162.19 245.499 162.042 245.499C161.895 245.499 161.749 245.537 161.62 245.609C161.491 245.681 161.383 245.785 161.306 245.911C155.244 256.096 149.224 266.994 139.623 274.278ZM217.713 248.311C217.523 248.575 217.426 248.763 214.176 254.311C211.534 259.319 207.567 263.505 202.708 266.411C197.848 269.317 192.284 270.832 186.622 270.791H146.078C152.371 263.833 157.777 256.121 162.171 247.832C163.355 249.22 164.694 250.468 166.162 251.552C167.865 253.136 170.078 254.06 172.402 254.157C173.408 253.986 174.331 253.497 175.039 252.763C175.747 252.028 176.201 251.087 176.335 250.076C176.595 247.712 176.066 245.328 174.832 243.296C174.225 242.116 173.487 241.009 172.633 239.994C177.831 240.846 181.017 236.211 178.714 232.55C178.714 232.55 225.722 232.561 226.936 232.55L217.681 248.329L217.713 248.311ZM106.858 226.375C109.153 222.443 112.439 219.18 116.388 216.913C120.337 214.646 124.811 213.453 129.365 213.453C129.794 213.453 223.953 213.385 225.718 213.502C227.573 213.746 229.277 214.655 230.514 216.06C231.75 217.464 232.435 219.27 232.441 221.141C232.441 223.975 230.52 226.434 229.144 228.782L227.942 230.834H177.593C176.934 230.014 176.204 229.253 175.41 228.561C173.584 227.227 171.567 226.176 169.428 225.442C168.596 225.092 166.716 224.334 166.716 224.334C165.698 222.837 164.529 221.448 163.229 220.187C161.409 218.84 159.292 217.948 157.056 217.586C154.821 217.224 152.531 217.403 150.379 218.108C147.032 219.233 143.947 221.02 141.307 223.363C138.601 225.672 136.06 228.169 133.704 230.834C133.704 230.834 105.466 230.771 104.268 230.782L106.858 226.375ZM103.242 232.543H132.253C128.982 236.305 126.025 240.329 123.412 244.575C122.498 246.141 121.439 247.617 120.248 248.984C118.985 250.433 117.236 251.371 115.33 251.622C113.548 251.606 111.832 250.941 110.505 249.75C108.019 247.631 103.581 242.864 102.907 242.448C102.968 242.48 103.025 242.519 103.077 242.564C102.925 242.338 99.6393 239.273 99.4088 239.061C100.64 236.979 102.342 234.073 103.239 232.554L103.242 232.543ZM76.4426 226.793C78.3434 226.808 80.2137 227.273 81.9005 228.149C84.0933 229.193 86.1831 230.441 88.1426 231.876C92.8072 235.31 97.2029 239.095 101.291 243.199C94.3735 251.228 89.4783 260.922 84.4837 268.8C79.9863 264.253 75.2471 260.117 68.9349 259.24L68.2433 258.747C64.0033 255.633 61.1202 251.01 60.1887 245.832C58.9886 237.727 67.9224 226.825 76.4404 226.793H76.4426ZM36.8926 269.937C41.9731 255.166 51.1206 242.13 63.2826 232.328C60.233 235.675 58.4863 240.006 58.3604 244.532C58.6023 247.316 59.3904 250.025 60.6798 252.504C61.9692 254.983 63.7345 257.184 65.8749 258.98C56.6654 259.109 48.6424 264.671 43.6658 271.119C37.1603 279.296 32.6894 288.9 30.6211 299.143C31.1458 289.136 33.2621 279.277 36.8904 269.937H36.8926ZM60.5639 338.189C64.5974 336.496 68.0018 333.586 70.3022 329.865C71.7207 327.35 72.7854 324.651 73.4662 321.844C73.873 320.326 74.3928 318.816 74.8222 317.288C77.3134 324.178 79.5746 331.149 81.6022 338.189H60.5639ZM135.352 344.099C135.352 344.099 85.4645 344.069 84.9538 344.078C82.3052 333.946 79.1454 323.953 75.4866 314.14C75.22 313.424 74.0222 313.236 73.8391 314.14C73.4639 316.016 72.8424 317.869 72.3136 319.706C71.6679 322.499 70.7348 325.217 69.5293 327.818C67.7908 331.093 65.1592 333.808 61.9399 335.648C58.7205 337.488 55.0453 338.378 51.3408 338.214C38.6486 338.186 31.1974 331.553 30.4132 317.422C30.2666 306.388 32.4876 295.45 36.9265 285.348C40.1751 277.895 45.0874 271.286 51.2866 266.027C57.2394 261.306 66.1438 258.928 73.5159 262.393C75.9949 263.636 78.279 265.235 80.2959 267.139C97.8358 283.705 116.763 316.025 135.35 344.103L135.352 344.099ZM164.44 338.189H133.523C120.61 318.183 115.401 309.878 106.336 296.729C109.839 296.381 164.465 290.611 164.465 290.611C164.465 344.953 164.474 335.938 164.438 338.193L164.44 338.189Z" fill="#07342F"/>
<path d="M176.331 339.432C176.783 337.746 189.665 288.846 189.665 288.808C189.873 288.026 188.82 287.312 188.239 287.978C179.617 297.841 173.974 309.95 171.967 322.895C171.117 328.697 171.169 334.957 174.905 339.8C175.011 339.904 175.142 339.979 175.285 340.018C175.428 340.056 175.579 340.057 175.723 340.02C175.866 339.983 175.998 339.909 176.104 339.806C176.211 339.703 176.289 339.574 176.331 339.432ZM173.603 323.356C175.323 311.981 179.942 301.241 187.017 292.168L175.161 337.142C173.147 332.841 172.6 327.998 173.603 323.356Z" fill="#07342F"/>
<path d="M89.4735 356.551C89.2798 356.611 89.1137 356.738 89.0048 356.909C88.8959 357.08 88.8514 357.284 88.8792 357.485C88.9053 357.685 89.0019 357.87 89.1517 358.007C89.3016 358.143 89.4949 358.221 89.6973 358.228L147.671 359.358C147.838 359.355 148.001 359.303 148.139 359.208C148.277 359.114 148.385 358.981 148.449 358.827C148.513 358.672 148.531 358.502 148.5 358.338C148.469 358.173 148.39 358.021 148.274 357.901C133.903 345.965 106.749 349.604 89.4713 356.551H89.4735ZM94.2195 356.61C109.136 351.473 131.962 348.754 145.038 357.607L94.2173 356.61H94.2195Z" fill="#07342F"/>
<path d="M162.468 223.342C159.649 221.967 156.466 221.522 153.378 222.072C152.296 222.251 152.754 223.896 153.83 223.717C156.624 223.278 159.485 223.722 162.014 224.988C163.04 225.388 163.485 223.74 162.468 223.342Z" fill="#07342F"/>
<path d="M167.551 237.506C167.654 237.315 167.681 237.092 167.626 236.882C167.571 236.672 167.438 236.491 167.255 236.376C165.255 235.189 163.08 234.326 160.811 233.817C159.74 233.591 159.281 235.23 160.359 235.465C162.478 235.956 164.512 236.759 166.393 237.849C166.492 237.904 166.6 237.939 166.712 237.951C166.824 237.963 166.937 237.952 167.044 237.919C167.261 237.854 167.443 237.705 167.551 237.506Z" fill="#07342F"/>
<path d="M118.685 277.548H110.623C110.46 277.557 110.304 277.613 110.171 277.708C110.039 277.803 109.936 277.934 109.876 278.086C109.815 278.237 109.799 278.403 109.829 278.563C109.86 278.723 109.935 278.871 110.047 278.99C110.198 279.149 110.404 279.243 110.623 279.255H118.685C118.847 279.246 119.004 279.19 119.137 279.095C119.269 279 119.372 278.869 119.432 278.717C119.493 278.566 119.509 278.4 119.478 278.24C119.448 278.08 119.373 277.932 119.261 277.813C119.11 277.654 118.903 277.56 118.685 277.548Z" fill="#07342F"/>
<path d="M77.7215 217.604C79.324 217.992 81.0056 217.895 82.5528 217.325C84.1 216.755 85.443 215.739 86.4112 214.404C87.3635 213.21 87.8741 211.724 87.8568 210.197C87.8395 208.67 87.2953 207.196 86.3163 206.024C85.6218 205.243 84.7794 204.608 83.8378 204.154C82.8962 203.701 81.8741 203.438 80.8305 203.382C79.787 203.326 78.7426 203.477 77.7579 203.827C76.7731 204.177 75.8674 204.719 75.0932 205.421C74.1086 206.244 73.3677 207.32 72.9506 208.534C72.5335 209.747 72.4561 211.052 72.7267 212.306C72.9973 213.561 73.6057 214.717 74.486 215.651C75.3663 216.585 76.4852 217.26 77.7215 217.604ZM74.3541 209.877C74.5821 208.854 75.0659 207.905 75.7603 207.12C76.4547 206.335 77.337 205.738 78.3246 205.387C79.3122 205.035 80.3728 204.94 81.4073 205.11C82.4417 205.28 83.4161 205.709 84.2394 206.358C85.1852 207.081 85.8347 208.123 86.0656 209.291C86.2966 210.458 86.0932 211.67 85.4937 212.698C84.8415 213.9 83.8336 214.871 82.6081 215.478C81.3826 216.084 79.9995 216.298 78.6481 216.088C77.9577 215.963 77.2986 215.704 76.7087 215.324C76.1188 214.944 75.6097 214.452 75.2108 213.875C74.8118 213.298 74.5307 212.647 74.3837 211.961C74.2367 211.275 74.2266 210.567 74.3541 209.877Z" fill="#07342F"/>
<path d="M74.6498 202.46C77.1358 202.327 79.6218 202.162 82.0852 201.811C84.0245 201.597 85.9215 201.097 87.7148 200.329C89.6359 199.495 91.2793 198.13 92.4525 196.395C93.6258 194.661 94.2801 192.627 94.3389 190.534C94.0293 186.292 88.9691 184.85 85.1226 186.859C81.4871 189.161 78.5857 192.454 76.7606 196.351C75.8566 197.983 74.8374 199.549 73.9198 201.174C73.845 201.304 73.8053 201.45 73.8047 201.6C73.8041 201.75 73.8426 201.897 73.9163 202.027C73.9901 202.157 74.0965 202.266 74.2252 202.342C74.3538 202.418 74.5002 202.46 74.6498 202.462V202.46ZM87.6131 187.77C88.2907 187.612 88.994 187.602 89.6761 187.738C90.3582 187.874 91.0033 188.155 91.5681 188.561C93.3897 189.845 92.6981 192.629 91.5681 194.586C90.5695 196.195 89.1946 197.537 87.5618 198.496C85.929 199.455 84.0875 200.003 82.1959 200.091C80.2065 200.358 78.2081 200.552 76.2047 200.674C79.0997 195.806 82.2185 189.026 87.6131 187.761V187.77Z" fill="#07342F"/>
<path d="M42.44 227.227C42.1936 226.678 24.6357 187.985 24.4097 187.58C24.7781 186.706 24.6651 186.918 24.5362 187.185C25.2278 185.698 28.6856 178.192 42.44 147.951C42.892 146.957 41.4207 146.087 40.9664 147.088C38.8827 151.667 23.361 185.44 22.796 187.026C22.706 187.295 22.6796 187.581 22.7188 187.861C22.758 188.141 22.8618 188.409 23.022 188.642C23.6797 190.091 40.876 227.871 40.9732 228.1C41.4207 229.087 42.892 228.222 42.44 227.227Z" fill="#07342F"/>
<path d="M133.456 155.323L142.379 162.221C142.542 162.375 142.758 162.46 142.982 162.46C143.207 162.46 143.423 162.375 143.586 162.221C143.746 162.06 143.835 161.843 143.835 161.617C143.835 161.391 143.746 161.174 143.586 161.014C143.385 160.858 137.583 156.369 134.887 154.279L143.586 147.549C143.746 147.388 143.836 147.171 143.836 146.944C143.836 146.717 143.746 146.5 143.586 146.34C143.424 146.183 143.207 146.096 142.982 146.096C142.757 146.096 142.541 146.183 142.379 146.34C142.379 146.34 133.221 153.386 132.923 153.657C132.245 154.378 132.934 154.921 133.456 155.323Z" fill="#07342F"/>
<path d="M133.458 133.076L142.381 139.971C142.544 140.126 142.76 140.212 142.984 140.212C143.209 140.212 143.425 140.126 143.588 139.971C143.748 139.811 143.837 139.594 143.837 139.367C143.837 139.141 143.748 138.924 143.588 138.764L134.878 132.032L143.579 125.299C143.739 125.139 143.828 124.922 143.828 124.696C143.828 124.469 143.739 124.252 143.579 124.092C143.417 123.935 143.2 123.847 142.974 123.847C142.748 123.847 142.532 123.935 142.37 124.092C139.536 126.284 133.212 131.139 132.914 131.408C132.247 132.131 132.936 132.662 133.458 133.076Z" fill="#07342F"/>
<path d="M133.458 110.317L142.381 117.213C142.544 117.368 142.76 117.454 142.984 117.454C143.209 117.454 143.425 117.368 143.588 117.213C143.748 117.053 143.837 116.836 143.837 116.609C143.837 116.383 143.748 116.166 143.588 116.006L134.878 109.273L143.579 102.541C143.739 102.381 143.828 102.164 143.828 101.937C143.828 101.711 143.739 101.494 143.579 101.334C143.416 101.177 143.2 101.09 142.974 101.09C142.749 101.09 142.532 101.177 142.37 101.334C139.536 103.526 133.212 108.381 132.914 108.652C132.247 109.37 132.936 109.913 133.458 110.317Z" fill="#07342F"/>
<path d="M211.814 146.34C211.654 146.5 211.564 146.717 211.564 146.944C211.564 147.171 211.654 147.388 211.814 147.549L220.515 154.279L211.814 161.014C211.655 161.174 211.566 161.391 211.566 161.617C211.566 161.843 211.655 162.06 211.814 162.221C211.977 162.376 212.193 162.463 212.418 162.463C212.642 162.463 212.859 162.376 213.021 162.221C213.021 162.221 222.179 155.174 222.477 154.903C223.155 154.182 222.457 153.642 221.934 153.237L213.021 146.34C212.858 146.186 212.642 146.101 212.418 146.101C212.193 146.101 211.978 146.186 211.814 146.34Z" fill="#07342F"/>
<path d="M211.878 132.025L203.177 138.764C203.017 138.925 202.927 139.142 202.927 139.369C202.927 139.595 203.017 139.813 203.177 139.973C203.339 140.128 203.555 140.215 203.779 140.215C204.003 140.215 204.219 140.128 204.381 139.973C207.215 137.781 213.539 132.927 213.837 132.655C214.515 131.934 213.814 131.392 213.295 130.99L204.381 124.092C204.218 123.939 204.002 123.853 203.778 123.853C203.553 123.853 203.338 123.939 203.174 124.092C203.094 124.171 203.031 124.265 202.988 124.369C202.944 124.472 202.922 124.583 202.922 124.696C202.922 124.808 202.944 124.919 202.988 125.023C203.031 125.126 203.094 125.22 203.174 125.299L211.878 132.025Z" fill="#07342F"/>
<path d="M193.55 109.273L184.849 116.006C184.689 116.166 184.6 116.383 184.6 116.609C184.6 116.836 184.689 117.053 184.849 117.213C185.011 117.37 185.227 117.458 185.453 117.458C185.678 117.458 185.894 117.37 186.056 117.213C188.89 115.02 195.214 110.168 195.512 109.897C196.19 109.176 195.489 108.634 194.969 108.229L186.056 101.334C185.893 101.18 185.677 101.095 185.453 101.095C185.228 101.095 185.013 101.18 184.849 101.334C184.689 101.494 184.6 101.711 184.6 101.937C184.6 102.164 184.689 102.381 184.849 102.541L193.55 109.273Z" fill="#07342F"/>
<path d="M440.387 186.534L422.436 147.076C421.984 146.077 420.51 146.943 420.962 147.937C434.784 178.382 438.095 185.508 438.789 187.239C439.069 187.939 438.92 187.752 438.866 187.872L420.962 227.227C420.51 228.219 421.981 229.087 422.436 228.088C424.519 223.51 439.998 189.72 440.606 188.15C440.693 187.881 440.719 187.596 440.681 187.317C440.643 187.037 440.542 186.769 440.387 186.534Z" fill="#07342F"/>
<path d="M168.868 115.604C169.763 115.953 170.719 116.121 171.679 116.096C172.64 116.072 173.586 115.856 174.462 115.461C175.338 115.065 176.126 114.499 176.78 113.795C177.435 113.091 177.942 112.264 178.272 111.361C178.602 110.459 178.748 109.499 178.703 108.54C178.657 107.58 178.42 106.638 178.006 105.771C177.591 104.904 177.008 104.129 176.29 103.49C175.572 102.852 174.733 102.363 173.824 102.053C172.037 101.438 170.08 101.548 168.374 102.361C166.668 103.173 165.349 104.622 164.699 106.397C164.05 108.171 164.122 110.13 164.901 111.851C165.68 113.573 167.104 114.92 168.865 115.604H168.868ZM169.485 103.639C170.317 103.341 171.21 103.247 172.087 103.366C172.963 103.485 173.798 103.813 174.522 104.323C175.245 104.833 175.835 105.509 176.241 106.295C176.648 107.08 176.86 107.952 176.859 108.837C176.852 109.973 176.498 111.079 175.845 112.008C175.192 112.937 174.27 113.644 173.204 114.035C171.829 114.523 170.316 114.446 168.998 113.82C167.679 113.195 166.662 112.072 166.17 110.698C165.678 109.324 165.75 107.811 166.371 106.49C166.993 105.17 168.112 104.149 169.485 103.653V103.639Z" fill="#07342F"/>
<path d="M102.378 89.4351C101.899 90.4205 103.372 91.2883 103.851 90.2984C106.086 85.6964 109.612 81.844 113.999 79.2109C114.187 79.0929 114.322 78.9062 114.375 78.6905C114.428 78.4747 114.394 78.2468 114.282 78.0551C114.17 77.8634 113.987 77.723 113.773 77.6637C113.559 77.6044 113.33 77.6308 113.135 77.7373C108.455 80.4664 104.706 84.543 102.378 89.4351Z" fill="#07342F"/>
<path d="M99.0025 87.8824C101.726 81.783 106.545 76.861 112.585 74.0083C113.582 73.5563 112.714 72.0715 111.726 72.5348C105.41 75.4999 100.37 80.6376 97.5267 87.0101C97.086 88.0158 98.5573 88.8859 99.0025 87.8824Z" fill="#07342F"/>
<path d="M21.902 274.877C21.6917 274.828 21.4708 274.861 21.2831 274.967C21.0955 275.074 20.955 275.248 20.8895 275.453C18.0263 285.336 17.0134 295.663 17.9018 305.914C17.9967 306.998 19.7098 307.01 19.6081 305.914C18.7545 295.816 19.7501 285.648 22.5461 275.908C22.5725 275.798 22.5767 275.683 22.5585 275.572C22.5403 275.46 22.5001 275.353 22.4401 275.257C22.3802 275.161 22.3017 275.078 22.2093 275.013C22.1169 274.948 22.0125 274.902 21.902 274.877Z" fill="#07342F"/>
<path d="M15.4357 275.053C11.1417 285.782 10.7778 294.989 11.7722 305.914C11.8694 306.998 13.5802 307.008 13.4785 305.914C12.4615 294.715 12.9926 285.929 17.081 275.508C17.4833 274.484 15.8335 274.041 15.4357 275.053Z" fill="#07342F"/>
<path d="M230.036 247.484C230.044 247.699 230.133 247.904 230.286 248.056C230.438 248.209 230.643 248.298 230.858 248.306H251.704C251.923 248.294 252.128 248.199 252.279 248.041C252.43 247.883 252.514 247.673 252.516 247.454C252.515 247.235 252.43 247.025 252.28 246.866C252.129 246.707 251.923 246.612 251.704 246.6H230.858C230.632 246.609 230.419 246.707 230.265 246.873C230.111 247.038 230.029 247.258 230.036 247.484Z" fill="#07342F"/>
<path d="M231.377 243.671L244.504 233.393C245.369 232.715 244.153 231.515 243.297 232.186L230.171 242.462C229.305 243.14 230.519 244.34 231.377 243.671Z" fill="#07342F"/>
<path d="M231.461 252.27C230.607 251.592 229.388 252.801 230.254 253.477L241.97 262.641C242.826 263.319 244.042 262.11 243.177 261.432L231.461 252.27Z" fill="#07342F"/>
</svg>
