<svg width="34" height="54" viewBox="0 0 34 54" fill="none" xmlns="http://www.w3.org/2000/svg">
<path d="M0.0531921 41.4117C-1.09037 21.1741 16.6106 22.8028 16.6106 22.8028C33.6878 22.8028 32.4611 42.1048 32.4611 42.1048L29.8136 43.8582L27.9839 34.0028H3.75418L2.3819 43.8305L0.0531921 41.4117Z" fill="#F6F3EC"/>
<path d="M11.1665 7.60297H11.1804C11.3606 3.37525 14.8398 0 19.1091 0C23.3784 0 27.0586 3.55545 27.0586 7.9495C27.0586 9.02376 26.8437 10.0564 26.4556 10.9921C26.4556 10.9921 24.2932 17.2851 12.9477 20.702C12.9477 20.702 10.6051 13.4317 11.1596 7.60297H11.1665Z" fill="#F6F3EC"/>
<path d="M4.85974 53.4814C5.78931 53.8448 6.78211 54.0188 7.77985 53.9933C8.7776 53.9678 9.7602 53.7433 10.67 53.3328C11.5798 52.9224 12.3984 52.3344 13.0779 51.6034C13.7574 50.8723 14.284 50.0129 14.6268 49.0755C14.9696 48.1382 15.1218 47.1418 15.0743 46.1449C15.0268 45.1479 14.7807 44.1705 14.3504 43.27C13.9201 42.3694 13.3142 41.5639 12.5684 40.9007C11.8226 40.2375 10.9518 39.7299 10.0071 39.4077C8.15138 38.7693 6.11922 38.8841 4.34728 39.7277C2.57533 40.5713 1.20497 42.0762 0.530602 43.9192C-0.14377 45.7622 -0.0683448 47.7962 0.740693 49.5842C1.54973 51.3721 3.02782 52.7715 4.85739 53.4814H4.85974ZM5.50051 41.0555C6.36552 40.7455 7.29242 40.6483 8.20292 40.7719C9.11342 40.8956 9.98079 41.2365 10.7318 41.7659C11.4829 42.2953 12.0955 42.9976 12.518 43.8135C12.9405 44.6295 13.1605 45.5351 13.1594 46.454C13.1517 47.6333 12.7842 48.7821 12.106 49.7468C11.4277 50.7116 10.4711 51.4462 9.36397 51.8525C7.93543 52.3591 6.3643 52.2788 4.99487 51.6291C3.62544 50.9795 2.56938 49.8134 2.05813 48.3865C1.54689 46.9596 1.62213 45.3883 2.26738 44.0167C2.91264 42.6452 4.07526 41.5854 5.50051 41.0696V41.0555Z" fill="#F6F3EC"/>
<path d="M22.8793 53.4814C23.8088 53.8448 24.8016 54.0188 25.7994 53.9933C26.7971 53.9678 27.7797 53.7433 28.6895 53.3328C29.5993 52.9224 30.418 52.3344 31.0974 51.6034C31.7769 50.8723 32.3035 50.0129 32.6463 49.0755C32.9892 48.1382 33.1413 47.1418 33.0938 46.1449C33.0464 45.1479 32.8003 44.1705 32.37 43.27C31.9396 42.3694 31.3338 41.5639 30.5879 40.9007C29.8421 40.2375 28.9713 39.7299 28.0266 39.4077C26.1709 38.7693 24.1388 38.8841 22.3668 39.7277C20.5949 40.5713 19.2245 42.0762 18.5501 43.9192C17.8758 45.7622 17.9512 47.7962 18.7602 49.5842C19.5693 51.3721 21.0474 52.7715 22.8769 53.4814H22.8793ZM23.52 41.0555C24.385 40.7455 25.3119 40.6483 26.2224 40.7719C27.1329 40.8956 28.0003 41.2365 28.7514 41.7659C29.5024 42.2953 30.115 42.9976 30.5375 43.8135C30.96 44.6295 31.18 45.5351 31.1789 46.454C31.1713 47.6333 30.8037 48.7821 30.1255 49.7468C29.4472 50.7116 28.4906 51.4462 27.3835 51.8525C25.955 52.3591 24.3838 52.2788 23.0144 51.6291C21.645 50.9795 20.5889 49.8134 20.0777 48.3865C19.5664 46.9596 19.6417 45.3883 20.2869 44.0167C20.9322 42.6452 22.0948 41.5854 23.52 41.0696V41.0555Z" fill="#F6F3EC"/>
<path d="M19.0742 46V46C17.9697 44.9048 16.1694 44.8954 15.0742 46V46" stroke="#F6F3EC" stroke-width="2" stroke-linecap="round" stroke-linejoin="round"/>
<line x1="14.0742" y1="30" x2="19.0742" y2="30" stroke="#F6F3EC" stroke-width="2"/>
</svg>
